<svg viewBox="72.85021200000001 142.93391014492755 938.51028 160.79511787439614" version="1.1" xmlns="http://www.w3.org/2000/svg" data-name="Layer 1" id="Layer_1" style="max-height: 500px" width="938.51028" height="160.79511787439614">
  <defs>
    <style>
      .cls-1 {
        fill: #00aff0;
      }

      .cls-1, .cls-2, .cls-3 {
        stroke-width: 0px;
      }

      .cls-2 {
        fill: #04adee;
      }

      .cls-3 {
        fill: #fff;
      }
    </style>
  </defs>
  <path d="M817.6,248.8l-42.1-61.7c-.9-1.3-2.2-2.2-3.8-2.5-.6-.2-1.3-.3-2-.2-2.1,0-4.1,1-5.3,2.6l-56.2,70.5c-1.6,2-1.3,4.9.7,6.5.8.7,1.9,1,2.9,1s2.7-.6,3.6-1.7l6.2-7.8,61.8,18.2,5.1,24.1c.5,2.2,2.4,3.6,4.5,3.6s.6,0,1-.1c2.5-.5,4.1-3,3.5-5.4l-5.5-25.8,6.1-33.1,11.8,17.4c1.4,2.1,4.3,2.6,6.4,1.2,2.1-1.4,2.6-4.3,1.2-6.4ZM727.8,247.5l39.6-49.7,13.9,65.4-53.5-15.7ZM787,246.2l-8-37.5,11.7,17.2-3.7,20.3Z" class="cls-3"/>
  <g>
    <path d="M137.3,245.8c2,5.2,4.5,9.7,7.3,13.5,28.4,39.9,96.4,32.3,108.1,30.8-17.1,5.9-36.7,9.3-57.6,9.3-66.6,0-120.6-34.4-120.6-76.9s54-76.9,120.6-76.9,98.4,21.9,114.4,52.4c-8.4-7.1-47.7-37.9-100.5-29.4-36.7,5.9-59.9,27.5-68,35.9,22.7-2.6,71.4-6.6,98,5.9,4.3,2,14.5,6.8,14.6,13.4.1,6.3-8.7,11.1-12.5,13.2-25.3,13.8-81.6,10.5-103.7,8.7Z" class="cls-1"/>
    <path d="M371.9,263.5c2,.9,4.3,1.9,6.8,3,2.5,1,5.3,1.9,8.5,2.7,3.1.8,6.3,1.2,9.6,1.2s2.2-.1,3.4-.3c1.2-.2,2.2-.6,3.1-1.3.8-.7,1.3-1.7,1.3-3s-.6-2-1.7-2.9c-1.1-.8-2.6-1.6-4.4-2.3-1.8-.7-3.8-1.4-5.9-2.1-.5-.2-1.1-.4-1.6-.5-7.1-2.3-12.7-5.9-16.8-10.7-4.2-4.8-6.3-11-6.3-18.6s4.5-18.8,13.4-24.3c8.9-5.5,19.1-8.3,30.6-8.3s19.7,1.1,28.8,3.3v29.6c-.2,0-.2,0-.3-.1-1.4-.6-3.3-1.3-5.5-2.1-2.3-.8-4.8-1.5-7.7-2.1-2.9-.6-5.9-.9-9.1-.9s-3.7.3-5.1.9c-1.4.6-2.1,1.8-2.1,3.5s.5,2.3,1.5,3.2c1,.8,2.4,1.6,4.1,2.2,1.7.6,3.6,1.3,5.6,1.9,1,.4,2.1.7,3.1,1.1,4,1.3,7.7,3,11.2,5.2,3.5,2.2,6.3,5.1,8.6,8.7,3.1,5.4,4.4,10.8,4.1,16.4-.4,5.6-2.1,10.8-5.3,15.6-3.1,4.8-7.3,8.6-12.5,11.5-3,1.7-6.2,2.9-9.6,3.7-3.4.8-6.8,1.4-10.3,1.6-3.5.2-6.9.4-10.3.4-10.7,0-20.4-1.4-29.1-4.3v-31.7Z" class="cls-2"/>
    <path d="M493.1,296.5h-37.8v-98.2h37.8v98.2Z" class="cls-2"/>
    <path d="M591.8,289.8c-1.4,1.2-3.7,2.5-6.8,4-3.1,1.5-7.2,2.8-12.2,3.9-5.1,1.1-11.9,1.7-20.6,1.7s-16.6-1.7-24-5.2c-7.3-3.4-13.3-8.2-17.8-14.3-4.6-6.1-7.6-13.2-9.3-21.3-.7-3.4-1-7-1-10.8s.3-7.3,1-10.8c1.6-8.1,4.9-15.2,9.9-21.3,5-6.1,11.5-10.8,19.4-14.3,8-3.4,17.2-5.2,27.6-5.2s8.2.3,11.4.9c3.2.6,5.8,1.4,7.9,2.2,2.1.8,3.8,1.6,5,2.2v29.1c-3.8-1.1-7.4-1.9-10.8-2.5-3.4-.5-7.4-.8-12-.8s-8.9.6-12,1.9c-3.1,1.3-5.3,3.4-6.7,6.3-1.4,3-2.1,7-2.1,12.1s.6,10,1.9,13,3.4,5.1,6.3,6.3,7,1.3,12.1.4v-10.7h-9.9v-20.6h42.6v53.3Z" class="cls-2"/>
    <path d="M665.6,198.3h35v98.2h-35l-29.2-44.7v44.7h-35.1v-98.2h35.1l29.2,44.7v-44.7Z" class="cls-2"/>
    <path d="M867.2,266h30.6v30.6h-68.7v-98.2h38.1v67.6Z" class="cls-2"/>
    <path d="M311,211.2h34.7v52.7c0,6.5-1.8,12.5-5.5,17.9-3.7,5.4-8.6,9.7-14.8,12.9-6.2,3.2-13.1,4.8-20.6,4.8s-14.4-1.6-20.6-4.8c-6.2-3.2-11.2-7.5-14.8-12.9-3.7-5.4-5.5-11.3-5.5-17.9v-52.7h34.7v51c0,1.9.6,3.6,1.8,4.9,1.2,1.4,2.7,2,4.4,2s3.2-.7,4.4-2c1.2-1.4,1.8-3,1.8-4.9v-51Z" class="cls-2"/>
    <g>
      <path d="M904,291.2h7.5v7.6h-7.5v-7.6Z" class="cls-2"/>
      <path d="M916.2,285.4v-15.1c0-8.7,2.9-14.1,12.3-14.1s11.8,4.9,11.8,12.2v3.5h-8.3v-3.9c0-3-.1-5.7-3.4-5.7s-3.7,2.8-3.7,5.9v19.2c0,3.6.7,5.9,3.7,5.9s3.4-2.8,3.4-5.9v-4.1h8.3v3.5c0,7.3-2.6,12.7-11.8,12.7s-12.3-5.6-12.3-14.1Z" class="cls-2"/>
      <path d="M945,285.6v-15.7c0-8.6,3.1-13.7,12.5-13.7s12.5,5.1,12.5,13.7v15.8c0,8.6-3.2,13.8-12.5,13.8s-12.5-5.2-12.5-13.9ZM961.1,287.7v-20c0-2.9-.5-5.5-3.7-5.5s-3.7,2.6-3.7,5.5v20c0,2.9.4,5.6,3.7,5.6s3.7-2.7,3.7-5.6Z" class="cls-2"/>
      <path d="M976.2,256.6h9.1l5.2,26.6,5.5-26.6h8.8l.8,42.2h-6.3l-.7-28.7-5.4,28.7h-5.3l-5.6-28.8-.6,28.8h-6.3l.7-42.2Z" class="cls-2"/>
    </g>
  </g>
</svg>