<?xml version="1.0" encoding="UTF-8"?>
<svg id="Layer_1" data-name="Layer 1" xmlns="http://www.w3.org/2000/svg" viewBox="0 0 1080 446.81">
  <defs>
    <style>
      .cls-1 {
        fill: #fff;
      }

      .cls-2 {
        fill: none;
      }

      .cls-3 {
        fill: #171717;
      }

      .cls-4 {
        fill: #0582ff;
      }
    </style>
  </defs>
  <g>
    <path class="cls-1" d="M146.25,155.66h-76.71c-4.63,0-8.39,3.77-8.39,8.39v95.64c0,4.63,3.77,8.39,8.39,8.39h19.46c-.04-.22-.04-.47-.04-.71,0-5.19,4.23-9.4,9.42-9.4s9.4,4.22,9.4,9.4c0,.24,0,.49-.04.71h38.5c.62,0,1.21-.06,1.79-.19h.02c3.79-.84,6.59-4.2,6.59-8.21v-95.64c0-4.63-3.75-8.39-8.39-8.39ZM138.75,258.76h-13.67c-3.64-11.27-14.23-19.44-26.7-19.44s-23.08,8.17-26.71,19.44h-1.19v-93.78h74.84v93.65l-6.57.13Z"/>
    <path class="cls-4" d="M163.97,164.05v95.64c0,.69-.04,1.36-.11,2.03-.02.06-.02.09-.02.15-.07.58-.17,1.14-.3,1.68-.32,1.42-.8,2.78-1.44,4.05-2.52,5.04-7.39,8.73-13.17,9.61-.88.13-1.77.21-2.69.21h-29.16v-18.66h28.23v-93.78h-74.84v93.78h9.2v18.66h-10.13c-9.78,0-17.72-7.95-17.72-17.72v-95.64c0-9.78,7.95-17.72,17.72-17.72h76.71c9.78,0,17.72,7.95,17.72,17.72Z"/>
  </g>
  <path class="cls-4" d="M125.07,258.76c-3.64-11.27-14.23-19.44-26.7-19.44s-23.08,8.17-26.71,19.44c-.9,2.72-1.36,5.62-1.36,8.62,0,.24,0,.49.02.71.07,3.28.73,6.42,1.85,9.33,4.05,10.54,14.27,18.02,26.21,18.02s22.14-7.48,26.17-18.02c1.14-2.91,1.79-6.04,1.87-9.33.02-.22.02-.47.02-.71,0-3-.47-5.9-1.36-8.62ZM98.38,276.79c-4.94,0-9.03-3.82-9.38-8.69-.04-.22-.04-.47-.04-.71,0-5.19,4.23-9.4,9.42-9.4s9.4,4.22,9.4,9.4c0,.24,0,.49-.04.71-.35,4.87-4.42,8.69-9.36,8.69Z"/>
  <path class="cls-4" d="M218.05,258.76c-3.64-11.27-14.23-19.44-26.71-19.44s-22.72,7.91-26.51,18.9c-.41,1.14-.73,2.31-.97,3.51-.02.06-.02.09-.02.15-.07.58-.17,1.14-.3,1.68-.17,1.25-.26,2.52-.26,3.82v.21c.02,3.26.62,6.38,1.68,9.29,3.88,10.82,14.25,18.56,26.38,18.56s22.16-7.48,26.19-18.02c1.23-3.12,1.88-6.51,1.88-10.04,0-3-.47-5.9-1.36-8.62ZM191.34,276.79c-5.19,0-9.4-4.22-9.4-9.4s4.22-9.4,9.4-9.4,9.42,4.22,9.42,9.4-4.22,9.4-9.42,9.4Z"/>
  <g>
    <line class="cls-2" x1="172.61" y1="267.38" x2="138.94" y2="268.09"/>
    <polygon class="cls-4" points="172.81 276.71 164.96 276.88 148.93 277.21 139.14 277.42 138.95 268.09 138.94 268.09 138.75 258.76 145.32 258.63 154.64 258.43 163.97 258.24 164.83 258.22 172.42 258.06 172.61 267.38 172.81 276.71"/>
  </g>
  <path class="cls-4" d="M219.66,277.42h-9.82v-18.66h9.6v-42.51c0-.35-.13-.67-.38-.92l-31.6-31.85h-32.82v-18.66h33.26c4.66,0,9.22,1.9,12.5,5.21l31.9,32.16c3.73,3.76,5.79,8.76,5.79,14.06v42.73c0,10.17-8.27,18.44-18.44,18.44Z"/>
  <path class="cls-4" d="M228.65,118.18c-20.65,0-37.46,16.83-37.46,37.48,0,3.38.45,6.66,1.29,9.78,3.82,14.12,15.71,24.98,30.39,27.25,1.88.3,3.82.45,5.78.45,8.94,0,17.16-3.13,23.6-8.38,2.43-1.98,4.59-4.23,6.45-6.73,4.66-6.25,7.42-13.99,7.42-22.37,0-20.65-16.81-37.48-37.48-37.48ZM200.52,155.66c0-15.52,12.61-28.15,28.13-28.15s28.15,12.63,28.15,28.15-12.63,28.15-28.15,28.15-28.13-12.63-28.13-28.15Z"/>
  <path class="cls-4" d="M279.9,210.86c-1.21,0-2.41-.46-3.32-1.39l-27.49-27.92c-1.81-1.84-1.78-4.79.05-6.59,1.83-1.81,4.79-1.79,6.6.05l27.49,27.92c1.81,1.84,1.78,4.79-.05,6.59-.91.89-2.09,1.34-3.27,1.34Z"/>
  <g>
    <path class="cls-3" d="M406.15,172.32h-31.43l-42.83,117.66h28.71l8.3-26.17h41.84l8.36,26.17h28.9l-41.84-117.66ZM374.55,243.47l12.8-39.88c1.1-3.4,1.77-6.81,2.05-10.26h.65c.39,4.1,1.04,7.63,1.98,10.6l12.63,39.55h-30.11Z"/>
    <path class="cls-3" d="M566.14,203.92c-12.41,0-21.81,5.22-28.23,15.67-4.37-10.45-12.5-15.67-24.36-15.67-5.75,0-11.02,1.4-15.88,4.22-4.85,2.82-8.6,6.47-11.29,10.95h-.32v-13.13h-25.93v84.02h25.93v-46.67c0-6.03,1.32-10.78,3.97-14.29,2.65-3.49,6.19-5.24,10.63-5.24,8.81,0,13.21,5.93,13.21,17.8v48.41h25.93v-47.01c0-5.47,1.32-10.04,4.01-13.69,2.69-3.68,6.16-5.5,10.43-5.5,8.97,0,13.45,6.1,13.45,18.3v47.91h25.86v-52.25c0-22.54-9.14-33.8-27.42-33.8Z"/>
    <path class="cls-3" d="M637.98,169.69c-2.76-2.46-6.36-3.69-10.78-3.69s-7.97,1.23-10.75,3.69c-2.8,2.46-4.2,5.63-4.2,9.53s1.4,6.96,4.2,9.55c2.78,2.59,6.36,3.9,10.75,3.9s8.02-1.27,10.78-3.77c2.76-2.52,4.14-5.75,4.14-9.68s-1.38-7.07-4.14-9.53ZM614.06,205.95v84.02h25.93v-84.02h-25.93Z"/>
    <path class="cls-3" d="M718.1,205.95v9.78h-.32c-4.92-7.87-12.54-11.81-22.82-11.81-11.32,0-20.5,4.18-27.57,12.54-7.05,8.38-10.58,19.57-10.58,33.56s3.21,23.64,9.64,30.99c6.42,7.35,14.91,11.03,25.46,11.03,11.38,0,20-4.53,25.86-13.62h.32v50.22h25.93v-122.68h-25.93ZM718.6,249.87c0,6.66-1.66,12.05-4.96,16.16-3.32,4.1-7.7,6.16-13.17,6.16-5.15,0-9.31-2.01-12.52-6.06-3.21-4.05-4.79-9.66-4.79-16.83,0-7.98,1.64-14.23,4.92-18.75s7.78-6.77,13.52-6.77c4.98,0,9.07,1.87,12.24,5.58,3.17,3.73,4.76,8.32,4.76,13.79v6.73Z"/>
    <path class="cls-3" d="M819.86,205.95v48.09c0,5.58-1.4,10-4.2,13.25-2.78,3.26-6.51,4.89-11.16,4.89-9.4,0-14.12-5.93-14.12-17.8v-48.43h-25.84v50.72c0,23.58,9.74,35.35,29.21,35.35,10.73,0,19.27-4.94,25.69-14.85h.41v12.8h25.84v-84.02h-25.84Z"/>
    <path class="cls-3" d="M921.51,205.95v48.09c0,5.58-1.4,10-4.18,13.25-2.8,3.26-6.51,4.89-11.16,4.89-9.42,0-14.12-5.93-14.12-17.8v-48.43h-25.84v50.72c0,23.58,9.74,35.35,29.21,35.35,10.71,0,19.27-4.94,25.67-14.85h.41v12.8h25.86v-84.02h-25.86Z"/>
    <path class="cls-3" d="M1026.58,255.11c-1.06-2.57-2.59-4.81-4.59-6.72-2-1.92-4.38-3.58-7.18-5.02-2.78-1.42-5.9-2.72-9.35-3.94-1.92-.65-3.84-1.31-5.78-1.92-1.94-.63-3.71-1.34-5.3-2.15-1.59-.78-2.87-1.73-3.86-2.82-.97-1.1-1.47-2.41-1.47-3.95,0-1.14.34-2.16.99-3.08.65-.9,1.57-1.62,2.71-2.2,1.16-.58,2.48-1.01,3.97-1.32,1.51-.3,3.12-.45,4.81-.45,3.6,0,7.28.49,11.02,1.44,3.75.97,7.28,2.39,10.56,4.31v-20.02c-3.73-1.1-7.5-1.94-11.32-2.5-3.84-.58-7.61-.86-11.32-.86-4.78,0-9.35.5-13.75,1.51-4.4,1.01-8.32,2.59-11.73,4.76-3.41,2.16-6.16,4.94-8.21,8.32-2.05,3.4-3.08,7.44-3.08,12.14,0,3.45.45,6.44,1.36,8.95.9,2.52,2.2,4.74,3.94,6.64,1.72,1.92,3.86,3.6,6.4,5.06,2.54,1.44,5.48,2.8,8.82,4.05,2.07.82,4.23,1.57,6.47,2.22s4.31,1.4,6.19,2.22,3.43,1.77,4.65,2.87c1.19,1.1,1.81,2.46,1.81,4.1,0,2.57-1.34,4.48-3.99,5.75-2.65,1.25-6.27,1.88-10.88,1.88-3.77,0-7.78-.63-12.01-1.88-4.23-1.27-8.49-3.17-12.76-5.75v21.01c7.87,2.84,16.44,4.25,25.69,4.25,5.02,0,9.89-.5,14.57-1.51,4.66-1.01,8.81-2.63,12.39-4.83,3.58-2.22,6.45-5.09,8.62-8.62,2.15-3.53,3.23-7.78,3.23-12.76,0-3.56-.52-6.62-1.6-9.2Z"/>
  </g>
</svg>